<svg xmlns="http://www.w3.org/2000/svg" viewBox="0 0 156.78 41.35"><defs><style>.cls-1{fill:#060001;}</style></defs><title>LOGO</title><g id="图层_2" data-name="图层 2"><g id="图层_1-2" data-name="图层 1"><path class="cls-1" d="M38,0H0V3.33H10.73L23.06,15.66l-12,12,2.49,2.49,12-12L38,30.62V41.35h3.33V0Zm0,25.91L27.91,15.8l.05-.06-2.5-2.49-.05.05-10-10H38Z"/><path class="cls-1" d="M49.53,14.76,55.45.44H59l5.93,14.32H61.31l-1.39-3.3H54.49l-1.4,3.3ZM57.21,3.9l-2,5h4.08Z"/><path class="cls-1" d="M71.32,3H66.77V.44H79.11V3H74.36V14.76h-3Z"/><path class="cls-1" d="M85.44.44V14.76h-3V.44Zm.11,7.09L91,.44h4l-6,7.09,5.71,7.23h-4Z"/><path class="cls-1" d="M98.26,14.76V.44h3V14.76Z"/><path class="cls-1" d="M108.84,4.26v10.5h-2.92V.44h3.91l5.69,10.67V.44h2.9V14.76h-3.74Z"/><path class="cls-1" d="M123,14.76V12.21h6.54a4.78,4.78,0,0,0,2.09-.3,1.48,1.48,0,0,0,.75-1.36A1.59,1.59,0,0,0,131.49,9a3.34,3.34,0,0,0-1.59-.28h-2.66a5.49,5.49,0,0,1-3.5-.88,3.8,3.8,0,0,1-1-1.39,4.38,4.38,0,0,1-.38-1.81,4.71,4.71,0,0,1,.88-2.75A3.68,3.68,0,0,1,126,.51a18.27,18.27,0,0,1,1.91-.07H135V3h-6.42a10.06,10.06,0,0,0-1.91.13c-.65.15-1,.64-1,1.46A1.34,1.34,0,0,0,126.49,6a4.51,4.51,0,0,0,1.8.26h2.3a8.55,8.55,0,0,1,2.62.3,3.34,3.34,0,0,1,2.1,1.8,5.49,5.49,0,0,1,.45,2.21,4.53,4.53,0,0,1-.6,2.34,3.46,3.46,0,0,1-2.51,1.76,16.72,16.72,0,0,1-2.47.13Z"/><path class="cls-1" d="M50.92,41.06V26.74h3V41.06Z"/><path class="cls-1" d="M61.08,30.56v10.5H58.16V26.74h3.9l5.69,10.67V26.74h2.9V41.06H66.92Z"/><path class="cls-1" d="M74.79,41.06V38.5h6.55a4.7,4.7,0,0,0,2.08-.3,1.47,1.47,0,0,0,.75-1.35,1.59,1.59,0,0,0-.88-1.52,3.27,3.27,0,0,0-1.58-.28H79a5.6,5.6,0,0,1-3.5-.88,4,4,0,0,1-1-1.4,4.36,4.36,0,0,1-.37-1.8A4.64,4.64,0,0,1,75,28.22a3.72,3.72,0,0,1,2.75-1.42c.43,0,1.06-.06,1.91-.06h7.1v2.55H80.35a12.41,12.41,0,0,0-1.91.13c-.64.16-1,.65-1,1.46a1.33,1.33,0,0,0,.81,1.37,4.39,4.39,0,0,0,1.81.26h2.29a8.46,8.46,0,0,1,2.62.3,3.38,3.38,0,0,1,2.11,1.81,5.42,5.42,0,0,1,.45,2.21,4.58,4.58,0,0,1-.6,2.34,3.49,3.49,0,0,1-2.52,1.76,18,18,0,0,1-2.46.13Z"/><path class="cls-1" d="M91.07,41.06V26.74h3V41.06Z"/><path class="cls-1" d="M103.56,32.56h7v8.5h-6.4a11.39,11.39,0,0,1-2.63-.25,4.58,4.58,0,0,1-1.77-.87c-1.5-1.16-2.25-3.15-2.25-6a9.09,9.09,0,0,1,1.07-4.61,4.72,4.72,0,0,1,2.17-2,8.75,8.75,0,0,1,3.56-.62h6.25v2.55h-5.9a3.84,3.84,0,0,0-2.77.84c-.69.66-1,1.84-1,3.54a10,10,0,0,0,.26,2.36,3.59,3.59,0,0,0,.75,1.57,2.31,2.31,0,0,0,1.12.69,6.41,6.41,0,0,0,1.77.21h2.77V35.11h-4Z"/><path class="cls-1" d="M126,26.74V41.06h-3V35.13h-5.54v5.93h-3V26.74h3v5.84H123V26.74Z"/><path class="cls-1" d="M133.42,29.29h-4.55V26.74h12.34v2.55h-4.74V41.06h-3.05Z"/><path class="cls-1" d="M144,41.06V38.5h6.55a4.7,4.7,0,0,0,2.08-.3,1.47,1.47,0,0,0,.75-1.35,1.59,1.59,0,0,0-.88-1.52,3.27,3.27,0,0,0-1.58-.28h-2.67a5.6,5.6,0,0,1-3.5-.88,4,4,0,0,1-1-1.4,4.36,4.36,0,0,1-.37-1.8,4.64,4.64,0,0,1,.88-2.75A3.72,3.72,0,0,1,147,26.8c.43,0,1.06-.06,1.91-.06H156v2.55h-6.42a12.3,12.3,0,0,0-1.91.13c-.64.16-1,.65-1,1.46a1.33,1.33,0,0,0,.81,1.37,4.39,4.39,0,0,0,1.81.26h2.29a8.46,8.46,0,0,1,2.62.3,3.38,3.38,0,0,1,2.11,1.81,5.42,5.42,0,0,1,.45,2.21,4.58,4.58,0,0,1-.6,2.34,3.49,3.49,0,0,1-2.52,1.76,18,18,0,0,1-2.46.13Z"/></g></g></svg>