<svg xmlns="http://www.w3.org/2000/svg" viewBox="0 0 156.14 40.89"><defs><style>.cls-1{fill:#fff;}</style></defs><title>white</title><g id="图层_2" data-name="图层 2"><g id="图层_1-2" data-name="图层 1"><path class="cls-1" d="M37.6,0H0V3.29H10.61l12.2,12.2L10.9,27.39l2.46,2.47L25.27,18,37.6,30.28V40.89h3.29V0Zm0,25.62-10-10,0,0-2.46-2.46-.06.05L15.27,3.29H37.6Z"/><path class="cls-1" d="M48.89,14.6,54.81.28h3.5L64.24,14.6H60.67l-1.39-3.31H53.85l-1.4,3.31ZM56.57,3.74l-2,5h4.08Z"/><path class="cls-1" d="M70.68,2.83H66.13V.28H78.47V2.83H73.73V14.6h-3Z"/><path class="cls-1" d="M84.8.28V14.6h-3V.28Zm.11,7.08L90.39.28h4l-6,7.08,5.71,7.24h-4Z"/><path class="cls-1" d="M97.62,14.6V.28h3V14.6Z"/><path class="cls-1" d="M108.2,4.1V14.6h-2.92V.28h3.91L114.88,11V.28h2.9V14.6H114Z"/><path class="cls-1" d="M122.35,14.6V12h6.55a4.76,4.76,0,0,0,2.08-.3,1.47,1.47,0,0,0,.75-1.35,1.59,1.59,0,0,0-.88-1.52,3.34,3.34,0,0,0-1.59-.28H126.6a5.58,5.58,0,0,1-3.5-.88,3.86,3.86,0,0,1-1-1.4,4.37,4.37,0,0,1-.38-1.8,4.71,4.71,0,0,1,.88-2.75A3.74,3.74,0,0,1,125.31.34c.43,0,1.07-.06,1.91-.06h7.11V2.83h-6.42A12.18,12.18,0,0,0,126,3a1.3,1.3,0,0,0-1,1.46,1.34,1.34,0,0,0,.82,1.38,4.55,4.55,0,0,0,1.8.25H130a8.49,8.49,0,0,1,2.62.31,3.34,3.34,0,0,1,2.1,1.8,5.46,5.46,0,0,1,.45,2.21,4.58,4.58,0,0,1-.6,2.34A3.49,3.49,0,0,1,132,14.47a16.72,16.72,0,0,1-2.47.13Z"/><path class="cls-1" d="M50.28,40.89V26.57h3V40.89Z"/><path class="cls-1" d="M60.44,30.4V40.89H57.52V26.57h3.91l5.68,10.67V26.57H70V40.89H66.28Z"/><path class="cls-1" d="M74.15,40.89V38.34H80.7a4.7,4.7,0,0,0,2.08-.3,1.46,1.46,0,0,0,.76-1.35,1.63,1.63,0,0,0-.88-1.53,3.47,3.47,0,0,0-1.59-.28H78.41a5.49,5.49,0,0,1-3.5-.88,3.94,3.94,0,0,1-1-1.39,4.37,4.37,0,0,1-.37-1.81,4.61,4.61,0,0,1,.88-2.74,3.66,3.66,0,0,1,2.75-1.42c.43,0,1.06-.07,1.91-.07h7.1v2.56H79.72a11.26,11.26,0,0,0-1.92.13c-.64.16-1,.64-1,1.46a1.34,1.34,0,0,0,.81,1.37,4.56,4.56,0,0,0,1.81.26h2.29a8.46,8.46,0,0,1,2.62.3,3.33,3.33,0,0,1,2.11,1.8,5.49,5.49,0,0,1,.45,2.21,4.53,4.53,0,0,1-.6,2.34,3.46,3.46,0,0,1-2.51,1.76,16.72,16.72,0,0,1-2.47.13Z"/><path class="cls-1" d="M90.43,40.89V26.57h3V40.89Z"/><path class="cls-1" d="M102.92,32.39h7v8.5h-6.4a11.53,11.53,0,0,1-2.63-.24,4.88,4.88,0,0,1-1.77-.87q-2.25-1.74-2.25-6A9.13,9.13,0,0,1,98,29.17a4.7,4.7,0,0,1,2.17-2,8.6,8.6,0,0,1,3.56-.63h6.25v2.56H104a3.84,3.84,0,0,0-2.77.84c-.69.65-1,1.84-1,3.54a9.51,9.51,0,0,0,.27,2.36,3.65,3.65,0,0,0,.74,1.57,2.29,2.29,0,0,0,1.12.68,6,6,0,0,0,1.77.22h2.77V35h-4Z"/><path class="cls-1" d="M125.4,26.57V40.89h-3V35h-5.54v5.92h-3V26.57h3v5.84h5.54V26.57Z"/><path class="cls-1" d="M132.78,29.13h-4.55V26.57h12.34v2.56h-4.74V40.89h-3.05Z"/><path class="cls-1" d="M143.36,40.89V38.34h6.55A4.7,4.7,0,0,0,152,38a1.46,1.46,0,0,0,.76-1.35,1.63,1.63,0,0,0-.88-1.53,3.47,3.47,0,0,0-1.59-.28h-2.67a5.48,5.48,0,0,1-3.49-.88,3.82,3.82,0,0,1-1.05-1.39,4.37,4.37,0,0,1-.37-1.81,4.61,4.61,0,0,1,.88-2.74,3.66,3.66,0,0,1,2.75-1.42c.43,0,1.06-.07,1.91-.07h7.1v2.56h-6.42a11.21,11.21,0,0,0-1.91.13c-.64.16-1,.64-1,1.46a1.34,1.34,0,0,0,.81,1.37,4.56,4.56,0,0,0,1.81.26H151a8.46,8.46,0,0,1,2.62.3,3.33,3.33,0,0,1,2.11,1.8,5.49,5.49,0,0,1,.45,2.21,4.53,4.53,0,0,1-.6,2.34A3.46,3.46,0,0,1,153,40.76a16.48,16.48,0,0,1-2.46.13Z"/></g></g></svg>